#!OML:ASF F:\VICON\USERDATA\INSTALL\rory3\rory3.ASF
:FULLY-SPECIFIED
:DEGREES


271
root 0.335202 17.6036 22.0468 -2.70882 3.75927 -0.536646
lowerback 10.0615 -1.9278 -1.13161
upperback 0.371977 -2.5452 2.76286
thorax -5.07874 -1.19829 3.89033
lowerneck -14.9546 -2.04942 -2.02521
upperneck 20.7309 -2.23568 -0.51821
head 8.98603 -1.26631 -0.108924
rclavicle 4.64659e-015 8.74653e-015
rhumerus -41.934 -32.745 -64.6069
rradius 18.8787
rwrist 14.9229
rhand -18.0654 21.8936
rfingers 7.12502
rthumb 8.20726 -7.92697
lclavicle 4.64659e-015 8.74653e-015
lhumerus -22.2027 -1.81727 84.2864
lradius 33.0824
lwrist 6.02201
lhand -32.0538 18.3533
lfingers 7.12502
lthumb -5.30071 48.267
rfemur -28.7833 3.7188 24.4877
rtibia 33.986
rfoot -2.07375 -4.85876
rtoes 9.38344
lfemur 13.4168 -3.84538 -22.4638
ltibia 36.4996
lfoot 3.0357 -17.9525
ltoes -14.4804
272
root 0.322325 17.6194 22.2625 -2.84304 3.70921 -0.588231
lowerback 10.097 -1.89577 -1.08349
upperback 0.316858 -2.49693 2.74763
thorax -5.1628 -1.1736 3.84412
lowerneck -14.8407 -2.04088 -2.05067
upperneck 20.7818 -2.22535 -0.497342
head 8.9831 -1.26158 -0.0954326
rclavicle 1.4884e-014 -3.18055e-015
rhumerus -42.2452 -32.98 -64.3325
rradius 18.9566
rwrist 15.0315
rhand -17.9027 21.6233
rfingers 7.12502
rthumb 8.36424 -8.19109
lclavicle 1.4884e-014 -3.18055e-015
lhumerus -22.7361 -1.83418 84.4394
lradius 33.0037
lwrist 6.10985
lhand -32.4846 18.6173
lfingers 7.12502
lthumb -5.7166 48.5202
rfemur -28.0927 3.9314 24.7285
rtibia 34.3527
rfoot -1.91679 -5.47637
rtoes 11.2112
lfemur 12.1715 -3.60685 -22.0657
ltibia 39.0388
lfoot 6.19964 -19.1608
ltoes -12.8804
273
root 0.305918 17.6461 22.4723 -3.08901 3.77233 -1.02524
lowerback 10.1477 -1.87718 -0.647137
upperback 0.392773 -2.41975 2.79148
thorax -5.13324 -1.14646 3.6327
lowerneck -15.002 -2.10064 -1.91486
upperneck 20.9246 -2.33514 -0.509254
head 9.06062 -1.30383 -0.138225
rclavicle -3.762e-014 -7.95139e-016
rhumerus -42.2525 -33.0805 -64.4628
rradius 19.0672
rwrist 14.6835
rhand -17.9331 21.2215
rfingers 7.12502
rthumb 8.33494 -8.59406
lclavicle -3.762e-014 -7.95139e-016
lhumerus -23.0963 -1.80724 84.5576
lradius 32.9459
lwrist 6.20623
lhand -31.8546 20.04
lfingers 7.12502
lthumb -5.10832 49.9585
rfemur -27.158 4.02548 25.4217
rtibia 34.6138
rfoot -2.38716 -5.97539
rtoes 12.0058
lfemur 10.8844 -3.45966 -21.2087
ltibia 41.6514
lfoot 8.47912 -20.7553
ltoes -11.9228
274
root 0.28902 17.6766 22.6779 -3.36695 3.97152 -1.25268
lowerback 10.247 -1.91686 -0.523402
upperback 0.508444 -2.45774 2.8151
thorax -5.06915 -1.16972 3.5937
lowerneck -15.1482 -2.10074 -1.82305
upperneck 21.0169 -2.36523 -0.464089
head 9.11879 -1.30566 -0.144125
rclavicle 4.32605e-014 -7.15625e-015
rhumerus -41.9622 -32.9538 -64.8572
rradius 19.1266
rwrist 14.0597
rhand -18.0666 21.1408
rfingers 7.12502
rthumb 8.20606 -8.67986
lclavicle 4.32605e-014 -7.15625e-015
lhumerus -23.3825 -1.84298 84.6917
lradius 32.8797
lwrist 6.63934
lhand -31.3424 21.5807
lfingers 7.12502
lthumb -4.61379 51.5104
rfemur -26.1805 3.97357 25.8603
rtibia 34.8047
rfoot -3.47151 -6.05424
rtoes 14.3891
lfemur 9.57735 -3.47234 -20.6318
ltibia 44.3327
lfoot 10.5119 -22.2794
ltoes -10.0799
275
root 0.276775 17.7048 22.8703 -3.44467 4.13419 -1.65752
lowerback 10.3628 -1.94117 -0.169513
upperback 0.453832 -2.44013 2.91743
thorax -5.20295 -1.16553 3.5065
lowerneck -14.9845 -2.14187 -1.80578
upperneck 20.9565 -2.43281 -0.454294
head 9.06797 -1.33481 -0.149499
rclavicle -3.13086e-015 -7.95139e-016
rhumerus -41.7782 -32.7387 -65.0653
rradius 19.0888
rwrist 13.5081
rhand -18.3193 21.5094
rfingers 7.12502
rthumb 7.96216 -8.3206
lclavicle -3.13086e-015 -7.95139e-016
lhumerus -23.7139 -1.73532 84.8786
lradius 32.9771
lwrist 6.93261
lhand -31.6901 19.3395
lfingers 7.12502
lthumb -4.94949 49.2617
rfemur -25.4335 3.85628 26.4733
rtibia 34.8549
rfoot -4.696 -6.06991
rtoes 15.9804
lfemur 7.93999 -3.52919 -19.8742
ltibia 47.1099
lfoot 13.0957 -22.9793
ltoes -5.33482
276
root 0.25617 17.7255 23.0654 -3.51569 4.06517 -2.24682
lowerback 10.4238 -1.84262 0.266017
upperback 0.426534 -2.24604 3.08524
thorax -5.28773 -1.0768 3.41313
lowerneck -15.1205 -2.25095 -1.80896
upperneck 21.1359 -2.58837 -0.421821
head 9.1567 -1.40433 -0.160011
rclavicle 1.22253e-014 2.38542e-015
rhumerus -41.543 -32.3211 -65.4814
rradius 19.2205
rwrist 12.7073
rhand -18.3505 22.1485
rfingers 7.12502
rthumb 7.93208 -7.68267
lclavicle 1.22253e-014 2.38542e-015
lhumerus -23.9207 -1.46086 85.036
lradius 33.0076
lwrist 6.99076
lhand -31.5572 18.3564
lfingers 7.12502
lthumb -4.82114 48.2815
rfemur -24.6613 3.92325 27.3658
rtibia 34.8398
rfoot -4.26366 -6.23372
rtoes 12.7415
lfemur 6.32406 -3.39996 -18.8964
ltibia 49.8918
lfoot 14.8131 -23.242
ltoes -1.715
277
root 0.240316 17.7474 23.2633 -3.6028 3.96802 -2.65403
lowerback 10.4976 -1.74895 0.51539
upperback 0.473025 -2.08362 3.2171
thorax -5.29335 -1.00126 3.38929
lowerneck -15.4298 -2.33338 -1.8062
upperneck 21.2583 -2.69315 -0.436645
head 9.25693 -1.45422 -0.183514
rclavicle -1.27222e-014 3.4191e-014
rhumerus -41.0373 -31.6654 -66.2135
rradius 19.4728
rwrist 11.8432
rhand -18.4229 22.3435
rfingers 7.12502
rthumb 7.86221 -7.49035
lclavicle -1.27222e-014 3.4191e-014
lhumerus -24.1315 -1.2178 85.1778
lradius 32.9832
lwrist 6.55799
lhand -31.238 19.1347
lfingers 7.12502
lthumb -4.51293 49.0667
rfemur -23.8492 4.06841 28.0164
rtibia 34.8105
rfoot -4.51748 -6.41667
rtoes 11.3442
lfemur 4.78338 -3.11004 -18.1371
ltibia 52.569
lfoot 15.2472 -23.3464
ltoes -1.84946
278
root 0.232805 17.7741 23.4576 -3.72408 3.95595 -2.97473
lowerback 10.6976 -1.7297 0.802623
upperback 0.440572 -2.01213 3.2963
thorax -5.4507 -0.970069 3.30979
lowerneck -15.4304 -2.38411 -1.92748
upperneck 21.2533 -2.76402 -0.304228
head 9.25986 -1.48228 -0.12682
rclavicle -1.21756e-014 7.15625e-015
rhumerus -40.584 -31.106 -66.7481
rradius 19.5618
rwrist 11.3407
rhand -18.4904 22.2781
rfingers 7.12502
rthumb 7.79699 -7.5581
lclavicle -1.21756e-014 7.15625e-015
lhumerus -24.5625 -1.05744 85.335
lradius 32.8629
lwrist 5.82308
lhand -31.8979 17.9251
lfingers 7.12502
lthumb -5.15013 47.8425
rfemur -22.9732 4.08494 28.5133
rtibia 34.7618
rfoot -5.24346 -6.53043
rtoes 12.0166
lfemur 3.24954 -2.86981 -17.5341
ltibia 55.1472
lfoot 14.838 -23.0816
ltoes -3.25778
279
root 0.228249 17.794 23.6487 -3.81377 3.9582 -3.03934
lowerback 10.6653 -1.66019 0.883368
upperback 0.427207 -1.91142 3.27556
thorax -5.45497 -0.922567 3.22626
lowerneck -15.2125 -2.40993 -1.9865
upperneck 21.1875 -2.84397 -0.0753037
head 9.20176 -1.49923 -0.0451624
rclavicle 1.72197e-014 -1.11319e-014
rhumerus -40.3491 -31.3564 -66.6984
rradius 19.3851
rwrist 11.7486
rhand -18.538 22.076
rfingers 7.12502
rthumb 7.75107 -7.76198
lclavicle 1.72197e-014 -1.11319e-014
lhumerus -24.8235 -1.19892 85.5171
lradius 32.3059
lwrist 5.48004
lhand -32.3189 15.9048
lfingers 7.12502
lthumb -5.5566 45.8119
rfemur -22.1172 4.12436 28.6903
rtibia 34.6988
rfoot -5.97088 -6.74365
rtoes 13.3187
lfemur 1.78039 -2.6536 -17.2766
ltibia 57.5377
lfoot 13.4611 -22.3082
ltoes -5.12249
280
root 0.218082 17.8048 23.8303 -3.87135 3.75459 -3.5567
lowerback 10.5249 -1.53364 1.32263
upperback 0.54063 -1.69216 3.3806
thorax -5.27725 -0.825732 3.04712
lowerneck -15.2725 -2.47374 -2.01156
upperneck 21.1962 -2.97534 0.138837
head 9.22102 -1.53843 0.0151506
rclavicle -8.69683e-016 1.27222e-014
rhumerus -39.7505 -31.711 -66.8818
rradius 19.0488
rwrist 12.4085
rhand -18.7784 22.3322
rfingers 7.12502
rthumb 7.51909 -7.51413
lclavicle -8.69683e-016 1.27222e-014
lhumerus -24.7677 -1.44813 85.6557
lradius 31.719
lwrist 5.31466
lhand -32.1461 16.7477
lfingers 7.12502
lthumb -5.38976 46.6592
rfemur -21.3308 4.20813 29.4424
rtibia 34.5517
rfoot -6.54693 -6.49016
rtoes 12.3796
lfemur 0.231773 -2.14364 -16.4064
ltibia 59.8637
lfoot 11.4731 -21.3379
ltoes -5.38741
281
root 0.208253 17.8218 24.0107 -4.02835 3.53019 -3.9309
lowerback 10.6054 -1.38435 1.6263
upperback 0.700751 -1.457 3.43029
thorax -5.17023 -0.717104 2.89152
lowerneck -15.5213 -2.57543 -1.88556
upperneck 21.1607 -3.14457 0.146197
head 9.25432 -1.6053 -0.0274351
rclavicle -2.13694e-015 7.15625e-015
rhumerus -38.9585 -31.4165 -67.6329
rradius 19.1064
rwrist 12.4609
rhand -18.5805 22.9701
rfingers 7.12502
rthumb 7.71011 -6.86938
lclavicle -2.13694e-015 7.15625e-015
lhumerus -24.6657 -1.46856 85.7147
lradius 31.3025
lwrist 4.84377
lhand -29.9996 21.789
lfingers 7.12502
lthumb -3.3171 51.743
rfemur -20.4183 4.13259 30.0459
rtibia 34.4104
rfoot -7.24045 -5.95497
rtoes 11.0979
lfemur -1.2643 -1.54571 -15.7047
ltibia 62.0101
lfoot 9.59046 -20.3587
ltoes -4.65293
282
root 0.198062 17.8513 24.1912 -4.11034 3.42382 -4.07374
lowerback 10.781 -1.28864 1.70415
upperback 0.684694 -1.31228 3.43644
thorax -5.29241 -0.646779 2.83878
lowerneck -15.7039 -2.59762 -1.73735
upperneck 21.3371 -3.18736 0.0455392
head 9.34538 -1.62366 -0.095902
rclavicle -2.85008e-014 1.19271e-014
rhumerus -38.3359 -30.3237 -68.6399
rradius 19.5881
rwrist 11.9281
rhand -18.3836 22.8986
rfingers 7.12502
rthumb 7.90007 -6.93381
lclavicle -2.85008e-014 1.19271e-014
lhumerus -24.9768 -1.18114 85.7343
lradius 31.0715
lwrist 4.20373
lhand -28.3956 24.6942
lfingers 7.12502
lthumb -1.76801 54.6667
rfemur -19.5837 4.04729 30.3473
rtibia 34.2784
rfoot -7.65472 -6.23042
rtoes 10.8665
lfemur -2.89436 -1.0409 -15.3112
ltibia 63.9314
lfoot 8.29777 -19.039
ltoes -4.46183
